<svg width="32" height="44" viewBox="0 0 32 44" fill="none" xmlns="http://www.w3.org/2000/svg">
<g clip-path="url(#clip0_527_700)">
<path fill-rule="evenodd" clip-rule="evenodd" d="M0 16C0 7.16344 7.16344 0 16 0C24.8366 0 32 7.16344 32 16V28C32 36.8366 24.8366 44 16 44H14V43.8762C6.10738 42.892 0 36.1592 0 28V16ZM16 40C22.6274 40 28 34.6274 28 28V16C28 9.37258 22.6274 4 16 4C9.37258 4 4 9.37258 4 16V28C4 34.6274 9.37258 40 16 40Z" fill="#12F7D6"/>
<path d="M17.3334 9.16663V16.5H14.6667V9.16663H17.3334Z" fill="#12F7D6"/>
</g>
<defs>
<clipPath id="clip0_527_700">
<rect width="32" height="44" fill="white"/>
</clipPath>
</defs>
</svg>
